<?xml version="1.0" encoding="UTF-8" standalone="no"?>
<!DOCTYPE svg PUBLIC "-//W3C//DTD SVG 1.1//EN"
 "http://www.w3.org/Graphics/SVG/1.1/DTD/svg11.dtd">
<!-- Generated by graphviz version 12.1.2 (20240928.0832)
 -->
<!-- Pages: 1 -->
<svg width="85pt" height="221pt"
 viewBox="0.00 0.00 85.11 221.00" xmlns="http://www.w3.org/2000/svg" xmlns:xlink="http://www.w3.org/1999/xlink">
<g id="graph0" class="graph" transform="scale(1 1) rotate(0) translate(4 217)">
<polygon fill="white" stroke="none" points="-4,4 -4,-217 81.11,-217 81.11,4 -4,4"/>
<!-- Tactic3 -->
<g id="node1" class="node">
<title>Tactic3</title>
<ellipse fill="none" stroke="black" cx="38.56" cy="-195" rx="38.56" ry="18"/>
<text text-anchor="middle" x="38.56" y="-189.95" font-family="Times,serif" font-size="14.00">Tactic3</text>
</g>
<!-- Tactic1 -->
<g id="node2" class="node">
<title>Tactic1</title>
<ellipse fill="none" stroke="black" cx="38.56" cy="-106.5" rx="38.56" ry="18"/>
<text text-anchor="middle" x="38.56" y="-101.45" font-family="Times,serif" font-size="14.00">Tactic1</text>
</g>
<!-- Tactic3&#45;&gt;Tactic1 -->
<g id="edge1" class="edge">
<title>Tactic3&#45;&gt;Tactic1</title>
<path fill="none" stroke="black" d="M25.75,-177.83C22.03,-172.2 18.46,-165.62 16.56,-159 14.53,-151.95 14.53,-149.55 16.56,-142.5 17.42,-139.5 18.63,-136.51 20.03,-133.61"/>
<polygon fill="black" stroke="black" points="23.05,-135.39 25,-124.98 16.98,-131.9 23.05,-135.39"/>
<text text-anchor="middle" x="28.56" y="-145.7" font-family="Times,serif" font-size="14.00">0.30</text>
</g>
<!-- Tactic1&#45;&gt;Tactic3 -->
<g id="edge3" class="edge">
<title>Tactic1&#45;&gt;Tactic3</title>
<path fill="none" stroke="black" d="M39.75,-124.94C40.08,-130.54 40.39,-136.78 40.56,-142.5 40.77,-149.83 40.77,-151.67 40.56,-159 40.5,-161.06 40.42,-163.18 40.33,-165.31"/>
<polygon fill="black" stroke="black" points="36.85,-164.88 39.83,-175.05 43.84,-165.24 36.85,-164.88"/>
<text text-anchor="middle" x="52.71" y="-145.7" font-family="Times,serif" font-size="14.00">0.70</text>
</g>
<!-- Tactic2 -->
<g id="node3" class="node">
<title>Tactic2</title>
<ellipse fill="none" stroke="black" cx="38.56" cy="-18" rx="38.56" ry="18"/>
<text text-anchor="middle" x="38.56" y="-12.95" font-family="Times,serif" font-size="14.00">Tactic2</text>
</g>
<!-- Tactic1&#45;&gt;Tactic2 -->
<g id="edge2" class="edge">
<title>Tactic1&#45;&gt;Tactic2</title>
<path fill="none" stroke="black" d="M38.56,-88.41C38.56,-76.76 38.56,-61.05 38.56,-47.52"/>
<polygon fill="black" stroke="black" points="42.06,-47.86 38.56,-37.86 35.06,-47.86 42.06,-47.86"/>
<text text-anchor="middle" x="50.56" y="-57.2" font-family="Times,serif" font-size="14.00">0.20</text>
</g>
</g>
</svg>
